/* XPM */
static char * E_xpm[] = {
"14 14 61 1",
" 	c None",
".	c #000000",
"+	c #690000",
"@	c #9F0000",
"#	c #E20000",
"$	c #890000",
"%	c #530000",
"&	c #760000",
"*	c #FF0000",
"=	c #380000",
"-	c #150000",
";	c #F80000",
">	c #5E0000",
",	c #A20000",
"'	c #EE0000",
")	c #B10000",
"!	c #1D0000",
"~	c #9C0000",
"{	c #190000",
"]	c #4D0000",
"^	c #010000",
"/	c #360000",
"(	c #FE0000",
"_	c #5C0000",
":	c #120000",
"<	c #BD0000",
"[	c #770000",
"}	c #A00000",
"|	c #920000",
"1	c #CE0000",
"2	c #C40000",
"3	c #C90000",
"4	c #100000",
"5	c #480000",
"6	c #E50000",
"7	c #140000",
"8	c #FD0000",
"9	c #210000",
"0	c #550000",
"a	c #4A0000",
"b	c #330000",
"c	c #1B0000",
"d	c #2E0000",
"e	c #A70000",
"f	c #F40000",
"g	c #040000",
"h	c #B60000",
"i	c #280000",
"j	c #060000",
"k	c #E00000",
"l	c #D80000",
"m	c #2C0000",
"n	c #C80000",
"o	c #D30000",
"p	c #020000",
"q	c #750000",
"r	c #DB0000",
"s	c #900000",
"t	c #BB0000",
"u	c #D60000",
"v	c #710000",
"  ............",
"  .+@###$###%.",
"  ..&**=.-+;>.",
"   .,*'. ..)! ",
"   .#*~..{.]^ ",
"   /(*_.:<... ",
"  .[*(}|1~.   ",
"  .2*3456_.   ",
"  78*$..,9.   ",
" .0**a..b.cd  ",
" .e*f-  .ghi  ",
".jk*l...mnop  ",
".qrrls$turv.  ",
"............  "};
