/* XPM */
static char * plus_xpm[] = {
"14 14 13 1",
" 	c None",
".	c #1C0000",
"+	c #6D0000",
"@	c #980000",
"#	c #380000",
"$	c #000000",
"%	c #550000",
"&	c #FF0000",
"*	c #AA0000",
"=	c #C60000",
"-	c #E20000",
";	c #630000",
">	c #8D0000",
"    .+@#$     ",
"    %&&*$     ",
"    %&&*$     ",
"    %&&*$     ",
"$$$$%&&*$$$$$ ",
"$***=&&-***#$ ",
" &&&&&&&&&&;  ",
"$%%%>&&=%%%.$ ",
"$$$$%&&*$$$$$ ",
"  $$%&&*$$$   ",
"    %&&*$     ",
"    @&&*$     ",
"     $$$$     ",
"     $$$$     "};
