/* XPM */
static char *stock_button_cancel[] = {
/* width height num_colors chars_per_pixel */
"    20    20        8            1",
/* colors */
". c #000000",
"# c #7b2d34",
"a c #8c343c",
"b c #9f3c44",
"c c #b5444e",
"d c #bd5a62",
"e c #bdbdbd",
"f c #c46d74",
/* pixels */
"eeeeeeeeeeeeeeeeeeee",
"eeeeeeeeeeeeeeeeeeee",
"eeeeeeeeeeeeeeeeeeee",
"eeeeee..eeeeee.eeeee",
"eeeee.fb.eeee.c.eeee",
"eeeee.cc.eee.dc.eeee",
"eeeeee.cb.e.dc#.eeee",
"eeeeee.cc..dca.eeeee",
"eeeeeee.ccccb.eeeeee",
"eeeeeee.cccc.eeeeeee",
"eeeeee.dccc.eeeeeeee",
"eeeee.dcccc.eeeeeeee",
"eeee.dca..ca.eeeeeee",
"eee.fca.e.bc.eeeeeee",
"eee.ca.eee.cb.eeeeee",
"eeee..eeee.bc.eeeeee",
"eeeeeeeeeee..eeeeeee",
"eeeeeeeeeeeeeeeeeeee",
"eeeeeeeeeeeeeeeeeeee",
"eeeeeeeeeeeeeeeeeeee"
};
