/* XPM */
static char *stock_button_apply[] = {
/* width height num_colors chars_per_pixel */
"    20    20       18            1",
/* colors */
". c #000000",
"# c #4f633e",
"a c #566c43",
"b c #5e764a",
"c c #627b4d",
"d c #668050",
"e c #688251",
"f c #698566",
"g c #6d8855",
"h c #6d8956",
"i c #708c58",
"j c #789774",
"k c #859d71",
"l c #88ac84",
"m c #97ab86",
"n c #a2bd9e",
"o c #b3c2a7",
"p c #bdbdbd",
/* pixels */
"pppppppppppppppppppp",
"pppppppppppppppppppp",
"pppppppppppppppppppp",
"ppppppppppppp..ppppp",
"pppppppppppp.oi.pppp",
"pppppppppppp.kc.pppp",
"ppppppppppp.mi.ppppp",
"ppppp..pppp.ka.ppppp",
"pppp.nj.pp.ki.pppppp",
"pppp.ll..p.ia.pppppp",
"ppppp.lj..bi.ppppppp",
"ppppp.llf.ga.ppppppp",
"pppppp.lled.pppppppp",
"ppppppp.lh#.pppppppp",
"ppppppp.ll.ppppppppp",
"pppppppp.f.ppppppppp",
"ppppppppp.pppppppppp",
"pppppppppppppppppppp",
"pppppppppppppppppppp",
"pppppppppppppppppppp"
};
