/* XPM */
static char * stock_convert_rev2_xpm[] = {
"24 24 27 1",
" 	c None",
".	c #000000",
"+	c #577A4D",
"@	c #4C6B43",
"#	c #76996C",
"$	c #9BB594",
"%	c #648C58",
"&	c #566B43",
"*	c #4C603C",
"=	c #DAE3D6",
"-	c #526741",
";	c #5A7046",
">	c #445636",
",	c #67865E",
"'	c #A7BDA0",
")	c #8EAB86",
"!	c #37452B",
"~	c #425D3A",
"{	c #D37F71",
"]	c #CE918A",
"^	c #D4897A",
"/	c #67102D",
"(	c #C47474",
"_	c #D69788",
":	c #CB8984",
"<	c #D79C8D",
"[	c #C8807D",
"                        ",
"                        ",
"                        ",
"    ...       .         ",
"  ..++@..    ..         ",
"  .#$$#%.   .&*..       ",
" .+$=$#%@. .-;-->..     ",
" .,'$)%%@.  .&-..!..    ",
" .+##%%+~.   ..  .!.    ",
"  .+%%+@.     .   ..    ",
"  ..~@~..         ..    ",
"    ...           .     ",
"              .  .      ",
"             .{.        ",
"            .]^/.       ",
"           .(]_//.      ",
"          .(:]<///.     ",
"         .([:]<////.    ",
"         .([:]_///.     ",
"          ..([^//.      ",
"            ..{/.       ",
"              ..        ",
"                        ",
"                        "};
