/* XPM */
static char * fragezeichen_small_xpm[] = {
"6 10 2 1",
" 	c None",
".	c #3D51BA",
" .... ",
".. ...",
"..  ..",
"   ...",
"   .. ",
"  .   ",
"  .   ",
"      ",
"  ..  ",
"  ..  "};
