/* XPM */
static char * Geliefert_small_xpm[] = {
"10 10 7 1",
" 	c None",
".	c #00CF2F",
"+	c #00C82E",
"@	c #000000",
"#	c #00CD2E",
"$	c #00CE2E",
"%	c #00C12D",
"   .... . ",
"  ..   +@ ",
" ..    @@ ",
"...   @@# ",
"$..  @@   ",
"@.. @@%...",
"@@.@@  .. ",
" @@@   .. ",
"  @...... ",
"          "};
