/* XPM */
static char * P_gruen_xpm[] = {
"8 10 2 1",
" 	c None",
".	c #13E008",
"        ",
" ...... ",
"  ..  ..",
"  ..  ..",
"  ..  ..",
"  ..... ",
"  ..    ",
"  ..    ",
"  ..    ",
"        "};
