/* XPM */
static char * prozent010_xpm[] = {
"7 10 2 1",
" 	c None",
".	c #FF3F00",
"       ",
"       ",
"       ",
"       ",
"       ",
"       ",
"       ",
"       ",
"       ",
"......."};
