/* XPM */
static char * prozent020_xpm[] = {
"7 10 2 1",
" 	c None",
".	c #FF3F00",
"       ",
"       ",
"       ",
"       ",
"       ",
"       ",
"       ",
"       ",
".......",
"......."};
