/* XPM */
static char * prozent000_xpm[] = {
"7 10 2 1",
" 	c None",
".	c #D7142D",
"..   ..",
"..   ..",
"..   ..",
"..   ..",
"..   ..",
"..   ..",
"..   ..",
"... ...",
" ..... ",
"  ...  "};
