/* XPM */
static char * prozent030_xpm[] = {
"7 10 2 1",
" 	c None",
".	c #FF3F00",
"       ",
"       ",
"       ",
"       ",
"       ",
"       ",
"       ",
".......",
".......",
"......."};
