/* XPM */
static char * prozent050_xpm[] = {
"7 10 2 1",
" 	c None",
".	c #FFBF30",
"       ",
"       ",
"       ",
"       ",
"       ",
".......",
".......",
".......",
".......",
"......."};
