/* XPM */
static char * prozent090_xpm[] = {
"7 10 2 1",
" 	c None",
".	c #FFBF30",
"       ",
".......",
".......",
".......",
".......",
".......",
".......",
".......",
".......",
"......."};
