/* XPM */
static char * V_gruen_xpm[] = {
"9 10 2 1",
" 	c None",
".	c #00CF2F",
"         ",
"...   .. ",
" .    .. ",
"  .  ..  ",
"  .  ..  ",
"  .. ..  ",
"  .. .   ",
"   ..    ",
"   ..    ",
"         "};
