/* XPM */
static char * X_Fehler_xpm[] = {
"9 15 2 1",
" 	c None",
".	c #FF0000",
"         ",
"..     ..",
"..     ..",
" ..   .. ",
" ..   .. ",
"  .. ..  ",
"  .. ..  ",
"   ...   ",
"   ...   ",
"  .. ..  ",
"  .. ..  ",
" ..   .. ",
" ..   .. ",
"..     ..",
"..     .."};
