/* XPM */
static char * Geplant_small_xpm[] = {
"10 10 2 1",
" 	c None",
".	c #56CF2F",
"   .... . ",
"  ..   .. ",
" ..     . ",
"...     . ",
"...       ",
"...   ....",
"...    .. ",
" ..    .. ",
"  ..  ... ",
"          "};
